<svg width="63" height="44" viewBox="0 0 63 44" fill="none" xmlns="http://www.w3.org/2000/svg">
<g filter="url(#filter0_d_43_82)">
<rect x="15.1133" y="20.1617" width="15.1209" height="15.1209" fill="#0662CF"/>
<path d="M15.1209 -3.8147e-05C17.1066 -3.8147e-05 19.0729 0.391077 20.9075 1.15097C22.742 1.91087 24.4089 3.02467 25.813 4.42878C27.2172 5.83289 28.331 7.49981 29.0909 9.33436C29.8508 11.1689 30.2419 13.1352 30.2419 15.1209L15.1209 15.1209V-3.8147e-05Z" fill="#0662CF"/>
<path d="M47.8791 35.283C45.8934 35.283 43.9271 34.8919 42.0925 34.132C40.258 33.3721 38.5911 32.2583 37.187 30.8542C35.7828 29.4501 34.669 27.7832 33.9091 25.9486C33.1492 24.114 32.7581 22.1478 32.7581 20.1621L47.8791 20.1621V35.283Z" fill="#01AD40"/>
<path d="M32.7581 15.1209C32.7581 13.1352 33.1492 11.1689 33.9091 9.33436C34.669 7.49981 35.7828 5.83289 37.187 4.42878C38.5911 3.02467 40.258 1.91087 42.0925 1.15097C43.9271 0.391077 45.8934 -3.8147e-05 47.8791 -3.8147e-05L47.8791 15.1209L32.7581 15.1209Z" fill="#01AD40"/>
</g>
<defs>
<filter id="filter0_d_43_82" x="11.1133" y="0" width="40.7656" height="43.283" filterUnits="userSpaceOnUse" color-interpolation-filters="sRGB">
<feFlood flood-opacity="0" result="BackgroundImageFix"/>
<feColorMatrix in="SourceAlpha" type="matrix" values="0 0 0 0 0 0 0 0 0 0 0 0 0 0 0 0 0 0 127 0" result="hardAlpha"/>
<feOffset dy="4"/>
<feGaussianBlur stdDeviation="2"/>
<feComposite in2="hardAlpha" operator="out"/>
<feColorMatrix type="matrix" values="0 0 0 0 0 0 0 0 0 0 0 0 0 0 0 0 0 0 0.25 0"/>
<feBlend mode="normal" in2="BackgroundImageFix" result="effect1_dropShadow_43_82"/>
<feBlend mode="normal" in="SourceGraphic" in2="effect1_dropShadow_43_82" result="shape"/>
</filter>
</defs>
</svg>
